<svg width="158" height="370" viewBox="0 0 158 370" fill="none" xmlns="http://www.w3.org/2000/svg">
<path d="M83.165 32.4996L122.132 5.38396C123.128 4.69147 124.503 4.96187 125.159 5.98411L157.577 56.4331C158.25 57.4817 157.917 58.8799 156.842 59.513L124.951 78.2496C124.074 78.7673 122.953 78.609 122.254 77.8704L82.7792 36.2917C81.7207 35.1772 81.9054 33.38 83.165 32.5029V32.4996Z" fill="#00236A"/>
<path d="M123.408 47.9222V52.1332L128.684 48.6543L124.529 46.8011C124.704 46.8505 127.144 47.5166 129.077 45.8481C130.491 44.628 131.062 42.6495 130.537 40.7963C130.455 40.6083 129.575 38.7056 127.451 38.2704C125.875 37.9472 124.226 38.5572 123.184 39.8433C123.128 39.6059 122.567 37.3866 120.322 36.4204C118.125 35.474 116.17 36.5194 115.943 36.6447C114.508 37.6339 113.779 39.3355 114.089 40.9677C114.478 43.0155 116.312 43.9091 116.503 43.9982C116.114 44.2125 115.204 44.783 114.706 45.9074C114.086 47.3089 114.36 49.0071 115.379 50.3426C116.15 51.0417 116.876 51.2857 117.334 51.3847C119.428 51.8265 121.852 50.4547 123.405 47.9288L123.408 47.9222Z" fill="#00236A"/>
<path d="M99.2074 40.3608V42.2239L101.796 40.684L99.7581 39.8629C99.8438 39.886 101.041 40.1795 101.987 39.4408C102.68 38.9 102.96 38.0262 102.703 37.2051C102.663 37.1226 102.231 36.2818 101.189 36.0872C100.414 35.9454 99.6064 36.2125 99.0986 36.783C99.0722 36.6775 98.7952 35.6948 97.6938 35.2694C96.6188 34.8506 95.656 35.3123 95.5471 35.3684C94.8448 35.8069 94.4853 36.5588 94.6403 37.2809C94.8316 38.1877 95.7285 38.5835 95.8241 38.623C95.6329 38.7187 95.1877 38.9693 94.9437 39.4672C94.6403 40.0871 94.7722 40.839 95.2734 41.4292C95.6527 41.7392 96.0088 41.848 96.233 41.8909C97.2619 42.0854 98.449 41.4787 99.2107 40.3608H99.2074Z" fill="#00236A"/>
<path d="M144.051 51.1009V49.2378L141.462 50.7777L143.5 51.5988C143.414 51.5757 142.217 51.2823 141.271 52.0209C140.578 52.5617 140.298 53.4356 140.555 54.2566C140.595 54.3391 141.027 55.18 142.069 55.3745C142.844 55.5163 143.652 55.2492 144.159 54.6787C144.186 54.7842 144.463 55.7669 145.564 56.1923C146.639 56.6111 147.602 56.1494 147.711 56.0934C148.413 55.6548 148.773 54.903 148.618 54.1808C148.426 53.274 147.53 52.8783 147.434 52.8387C147.625 52.7431 148.07 52.4925 148.314 51.9945C148.618 51.3746 148.486 50.6228 147.985 50.0325C147.605 49.7225 147.249 49.6137 147.025 49.5708C145.996 49.3763 144.809 49.983 144.047 51.1009H144.051Z" fill="#00236A"/>
<path d="M95.4946 33.8906L94.5764 34.683L92.8406 32.6978L92.1455 33.3056L93.8813 35.2908L92.9682 36.0892L90.0529 32.755C89.9087 32.5901 89.8044 32.4075 89.7402 32.2072C89.676 32.007 89.6508 31.8038 89.6646 31.5977C89.6784 31.3916 89.7305 31.1936 89.8209 31.0037C89.9152 30.8104 90.0414 30.6377 90.1994 30.4856L90.653 30.089C90.7674 29.9821 90.8945 29.9055 91.0344 29.8595C91.1748 29.806 91.3169 29.7823 91.4606 29.7882C91.6044 29.7942 91.7426 29.8293 91.875 29.8936C92.0115 29.9545 92.1312 30.0439 92.2342 30.1617L95.4946 33.8906ZM92.0937 31.8437L91.3314 30.9718C91.2484 31.0513 91.1593 31.1396 91.0641 31.2368C90.9654 31.33 90.9097 31.4445 90.8969 31.5805C90.8929 31.6394 90.8983 31.697 90.913 31.7535C90.9243 31.806 90.9481 31.8649 90.9844 31.9302C91.0246 31.992 91.0788 32.0659 91.147 32.1518C91.2117 32.2338 91.2956 32.3337 91.3986 32.4515L92.0937 31.8437Z" fill="#00236A"/>
<path d="M147.297 57.0152L148.013 56.4417L149.271 57.9915L149.813 57.5513L148.556 56.0015L149.269 55.4234L151.38 58.0263C151.485 58.155 151.558 58.296 151.601 58.4493C151.644 58.6025 151.658 58.7568 151.641 58.9123C151.625 59.0678 151.58 59.216 151.507 59.3571C151.43 59.5007 151.33 59.6277 151.206 59.7383L150.852 60.0255C150.762 60.1032 150.664 60.1575 150.557 60.1884C150.449 60.2249 150.341 60.2389 150.233 60.2304C150.124 60.2218 150.021 60.1914 149.922 60.1391C149.821 60.0892 149.733 60.0183 149.658 59.9263L147.297 57.0152ZM149.811 58.6583L150.363 59.3389C150.428 59.2811 150.498 59.2169 150.573 59.1461C150.65 59.0784 150.696 58.9933 150.709 58.8908C150.714 58.8464 150.711 58.8027 150.702 58.7596C150.695 58.7195 150.678 58.6743 150.653 58.624C150.624 58.5761 150.585 58.5187 150.536 58.4518C150.489 58.388 150.429 58.3101 150.354 58.2181L149.811 58.6583Z" fill="#00236A"/>
<path d="M68.5206 148.949L16.3569 207.549C14.6257 209.495 15.0017 212.515 17.1549 213.979L63.0731 245.171C65.0417 246.506 67.7193 245.995 69.0581 244.03L119.784 169.423C121.383 167.072 120.305 163.84 117.611 162.92L73.1339 147.738C71.4917 147.178 69.6748 147.656 68.5239 148.952L68.5206 148.949Z" fill="#00236A"/>
<path d="M74.7761 180.546L69.3022 182.369C69.0219 182.462 68.7317 182.528 68.4415 182.564C59.5843 183.718 53.3124 187.138 52.831 191.21C52.7452 191.929 52.8244 192.806 53.2794 193.848C53.7312 194.511 54.4303 195.286 55.469 195.813C57.7509 196.967 60.7418 196.446 63.2149 194.58C62.4763 195.362 61.4309 196.209 60.1713 197.119C58.4467 198.369 56.3132 199.576 54.6842 199.408L62.318 203.619C62.318 203.619 61.4771 197.726 64.6197 195.536C64.0459 197.564 64.5801 199.711 66.0244 201.093C67.6303 202.629 69.6748 202.57 70.0672 202.554C72.2304 202.629 73.5296 202.009 74.2781 201.488C77.8527 198.989 78.5056 191.985 75.2575 184.173C75.0827 183.751 74.9706 183.303 74.9377 182.847C74.8849 182.082 74.8354 181.317 74.7827 180.552L74.7761 180.546Z" fill="#00236A"/>
<path d="M71.5214 158.258L69.477 158.924C69.3715 158.957 69.2626 158.98 69.1538 158.996C65.8431 159.418 63.4985 160.665 63.3205 162.152C63.2875 162.416 63.3205 162.736 63.4887 163.115C63.6568 163.356 63.9206 163.639 64.3064 163.834C65.1605 164.256 66.2751 164.065 67.2017 163.382C66.9247 163.669 66.5356 163.976 66.064 164.309C65.4177 164.764 64.623 165.206 64.013 165.143L66.8653 166.68C66.8653 166.68 66.5521 164.526 67.726 163.728C67.5116 164.47 67.7095 165.252 68.2503 165.756C68.8504 166.317 69.6155 166.297 69.7606 166.29C70.5685 166.32 71.0532 166.093 71.3335 165.901C72.669 164.988 72.913 162.432 71.6995 159.58C71.6336 159.425 71.5907 159.263 71.5808 159.095C71.561 158.815 71.5412 158.538 71.5247 158.258H71.5214Z" fill="#00236A"/>
<path d="M64.2734 230.632L66.3179 229.966C66.4234 229.933 66.5322 229.91 66.641 229.893C69.9518 229.471 72.2963 228.225 72.4744 226.737C72.5073 226.474 72.4744 226.154 72.3062 225.775C72.138 225.534 71.8742 225.25 71.4884 225.056C70.6343 224.634 69.5198 224.825 68.5932 225.507C68.8702 225.221 69.2593 224.914 69.7308 224.581C70.3771 224.126 71.1718 223.684 71.7819 223.747L68.9295 222.21C68.9295 222.21 69.2428 224.363 68.0689 225.161C68.2832 224.419 68.0853 223.638 67.5446 223.133C66.9444 222.573 66.1794 222.592 66.0343 222.599C65.2264 222.569 64.7417 222.797 64.4614 222.988C63.1259 223.902 62.8818 226.457 64.0953 229.31C64.1613 229.465 64.2042 229.626 64.214 229.794C64.2338 230.075 64.2536 230.352 64.2701 230.632H64.2734Z" fill="#00236A"/>
<path d="M73.5767 158.695L72.5942 157.984L74.1267 155.838L73.3753 155.301L71.8428 157.447L70.8557 156.742L73.4297 153.138C73.557 152.96 73.7107 152.816 73.8908 152.708C74.0709 152.599 74.2629 152.528 74.4666 152.494C74.6704 152.46 74.875 152.465 75.0806 152.509C75.2905 152.557 75.4876 152.64 75.6719 152.759L76.1623 153.109C76.2926 153.195 76.3964 153.302 76.4734 153.427C76.5577 153.551 76.6135 153.684 76.6408 153.825C76.6681 153.967 76.6657 154.109 76.6336 154.253C76.6057 154.4 76.5463 154.537 76.4553 154.664L73.5767 158.695ZM74.7861 154.914L75.4592 153.972C75.3628 153.91 75.2563 153.843 75.1399 153.773C75.0265 153.698 74.9021 153.67 74.7669 153.689C74.7087 153.699 74.6538 153.717 74.6023 153.745C74.5538 153.768 74.5019 153.804 74.4467 153.855C74.3958 153.908 74.3364 153.978 74.2685 154.064C74.2036 154.146 74.1257 154.251 74.0347 154.378L74.7861 154.914Z" fill="#00236A"/>
<path d="M64.2226 233.418L63.2143 232.744L61.7345 234.927L60.9702 234.409L62.4501 232.226L61.4461 231.545L58.9607 235.211C58.8378 235.392 58.7567 235.586 58.7175 235.793C58.6782 236 58.6781 236.204 58.717 236.407C58.756 236.61 58.8319 236.8 58.9448 236.978C59.062 237.158 59.2084 237.314 59.3839 237.446L59.8826 237.784C60.0092 237.876 60.1448 237.936 60.2892 237.965C60.4351 238.001 60.579 238.007 60.721 237.983C60.863 237.96 60.9958 237.908 61.1194 237.828C61.2473 237.751 61.3552 237.648 61.443 237.518L64.2226 233.418ZM61.0978 235.866L60.4479 236.824C60.3558 236.756 60.2566 236.679 60.1502 236.594C60.0408 236.514 59.9715 236.407 59.9421 236.274C59.931 236.216 59.9293 236.158 59.937 236.1C59.9417 236.046 59.9581 235.985 59.9862 235.916C60.0185 235.85 60.0633 235.77 60.1204 235.676C60.1747 235.587 60.2457 235.477 60.3335 235.348L61.0978 235.866Z" fill="#00236A"/>
<path d="M53.7742 271.251C55.878 282.163 63.9306 309.186 93.8524 332.674C95.1615 333.7 95.1088 335.698 93.7601 336.671L49.0554 368.822C48.0431 369.551 46.6482 369.425 45.7875 368.525C38.3978 360.789 7.13055 323.448 9.46521 247.473C9.52127 245.626 11.4998 244.482 13.1321 245.339L48.175 263.736C51.0834 265.263 53.1542 268.023 53.7775 271.251H53.7742Z" fill="#00236A"/>
<path d="M42.8921 301.024C42.1798 296.652 39.466 293.555 36.4949 293.278C35.8815 293.222 34.6549 293.229 33.1281 294.119C32.1586 295.204 31.6805 296.25 31.4431 297.15C30.1405 302.136 34.7736 308.661 42.8921 313.482C45.2498 315.111 47.6076 316.737 49.9653 318.366L52.6594 311.461C53.0287 310.643 55.3601 305.258 52.6594 300.012C51.5086 297.776 49.8697 296.391 48.7848 295.633C48.4616 295.481 46.8524 294.762 45.2498 295.465C43.4329 296.263 42.3513 298.574 42.8921 301.021V301.024Z" fill="#00236A"/>
<path d="M20.3403 266.921C20.7591 264.755 20.182 262.925 19.051 262.394C18.8168 262.285 18.3288 262.124 17.5803 262.341C17.023 262.724 16.6635 263.156 16.4261 263.551C15.1104 265.738 15.8952 269.451 18.3387 272.824C19.0114 273.912 19.6841 275 20.3568 276.085L22.5332 273.177C22.8102 272.841 24.5974 270.605 24.3732 267.756C24.2776 266.542 23.8489 265.665 23.5422 265.164C23.44 265.048 22.9157 264.491 22.1671 264.61C21.3197 264.742 20.5184 265.691 20.3403 266.925V266.921Z" fill="#00236A"/>
<path d="M76.8377 328.95C77.8929 330.889 79.5021 331.934 80.7156 331.621C80.9662 331.555 81.4443 331.37 81.8829 330.727C82.0708 330.078 82.0708 329.517 82.0049 329.062C81.629 326.536 78.6612 324.175 74.6283 323.126C73.4181 322.714 72.2079 322.305 70.9944 321.893L71.1659 325.52C71.1659 325.956 71.2121 328.821 73.1972 330.872C74.0446 331.746 74.9317 332.152 75.489 332.343C75.6407 332.366 76.3991 332.462 76.9003 331.898C77.4708 331.255 77.484 330.015 76.8344 328.95H76.8377Z" fill="#00236A"/>
<path d="M18.5263 260.492L19.6947 260.817L20.4188 258.281L21.3067 258.535L20.5826 261.071L21.7488 261.404L22.965 257.145C23.0252 256.934 23.0416 256.725 23.0144 256.516C22.9871 256.308 22.9233 256.113 22.823 255.933C22.7226 255.752 22.5911 255.595 22.4285 255.462C22.2608 255.327 22.073 255.225 21.8652 255.155L21.2858 254.989C21.1368 254.941 20.9892 254.926 20.843 254.944C20.6932 254.955 20.5546 254.995 20.427 255.061C20.2995 255.128 20.1895 255.219 20.0971 255.333C19.9996 255.446 19.9294 255.578 19.8865 255.729L18.5263 260.492ZM20.7304 257.19L21.0484 256.077C21.1573 256.113 21.2756 256.155 21.4031 256.203C21.5321 256.245 21.6314 256.325 21.7009 256.442C21.7296 256.494 21.7493 256.548 21.76 256.606C21.7722 256.658 21.7758 256.721 21.7708 256.796C21.7608 256.869 21.7432 256.959 21.7182 257.066C21.6945 257.167 21.6612 257.294 21.6183 257.444L20.7304 257.19Z" fill="#00236A"/>
<path d="M80.2731 335.072L81.155 334.24L82.9778 336.145L83.6451 335.507L81.8222 333.601L82.6987 332.763L85.7602 335.963C85.9117 336.122 86.0239 336.299 86.0971 336.497C86.1702 336.694 86.2044 336.896 86.1998 337.102C86.1953 337.309 86.1521 337.509 86.0703 337.703C85.9847 337.9 85.8664 338.078 85.7153 338.237L85.2799 338.654C85.1704 338.766 85.0468 338.848 84.9091 338.9C84.7713 338.96 84.6304 338.99 84.4865 338.99C84.3426 338.991 84.203 338.962 84.0678 338.903C83.9288 338.849 83.8052 338.765 83.6971 338.652L80.2731 335.072ZM83.7622 336.965L84.5627 337.802C84.642 337.719 84.7271 337.627 84.8179 337.525C84.9123 337.428 84.9629 337.311 84.9696 337.175C84.9709 337.116 84.9629 337.058 84.9457 337.002C84.9321 336.95 84.9057 336.893 84.8665 336.829C84.8236 336.769 84.7662 336.698 84.6942 336.615C84.6258 336.536 84.5376 336.44 84.4294 336.327L83.7622 336.965Z" fill="#00236A"/>
<path d="M27.5817 79.5721L3.87248 122.747C3.21297 123.947 3.75047 125.457 5.02002 125.968L37.2204 138.967C38.3911 139.439 39.7233 138.875 40.1981 137.704L61.3551 85.5274C61.9157 84.1424 61.022 82.5992 59.5415 82.4013L29.8933 78.4014C28.9568 78.2761 28.0368 78.7378 27.5817 79.5688V79.5721Z" fill="#00236A"/>
<path d="M31.2898 84.2846L32.085 84.5062L32.5779 82.7804L33.1821 82.9529L32.6893 84.6787L33.4831 84.9054L34.3108 82.0069C34.3518 81.8635 34.363 81.7208 34.3444 81.5789C34.3259 81.437 34.2825 81.3046 34.2142 81.1817C34.1459 81.0588 34.0564 80.952 33.9456 80.8613C33.8315 80.7696 33.7037 80.6999 33.5623 80.6521L33.1679 80.5395C33.0665 80.5068 32.966 80.4966 32.8665 80.5088C32.7646 80.5166 32.6702 80.5432 32.5834 80.5886C32.4966 80.6339 32.4218 80.6957 32.3589 80.7737C32.2925 80.8508 32.2448 80.9405 32.2155 81.0429L31.2898 84.2846ZM32.7899 82.0378L33.0064 81.2799C33.0805 81.3047 33.161 81.3332 33.2478 81.3654C33.3356 81.3942 33.4031 81.4486 33.4505 81.5285C33.47 81.5636 33.4834 81.6007 33.4907 81.6397C33.499 81.6753 33.5014 81.7185 33.498 81.7692C33.4912 81.819 33.4793 81.8802 33.4622 81.9528C33.4461 82.0221 33.4235 82.1079 33.3942 82.2104L32.7899 82.0378Z" fill="#00236A"/>
<path d="M34.1149 129.385L33.3197 129.164L32.8268 130.889L32.2225 130.717L32.7154 128.991L31.9216 128.764L31.0938 131.663C31.0529 131.806 31.0417 131.949 31.0602 132.091C31.0788 132.233 31.1222 132.365 31.1905 132.488C31.2588 132.611 31.3483 132.718 31.459 132.809C31.5732 132.9 31.701 132.97 31.8424 133.018L32.2367 133.13C32.3382 133.163 32.4386 133.173 32.5381 133.161C32.6401 133.153 32.7344 133.127 32.8212 133.081C32.908 133.036 32.9829 132.974 33.0458 132.896C33.1121 132.819 33.1599 132.729 33.1892 132.627L34.1149 129.385ZM32.6148 131.632L32.3983 132.39C32.3242 132.365 32.2437 132.337 32.1569 132.304C32.0691 132.276 32.0015 132.221 31.9542 132.141C31.9347 132.106 31.9213 132.069 31.914 132.03C31.9057 131.994 31.9032 131.951 31.9066 131.901C31.9135 131.851 31.9254 131.79 31.9425 131.717C31.9585 131.648 31.9812 131.562 32.0105 131.459L32.6148 131.632Z" fill="#00236A"/>
<path d="M26.0142 100.966L36.5761 96.3106L39.8666 106.286L28.0993 113.189L26.0142 100.966Z" fill="#00236A"/>
<path d="M28.0739 87.315L31.8214 85.8686L33.1133 89.2505L28.9569 91.438L28.0739 87.315Z" fill="#00236A"/>
<path d="M32.4121 122.036L37.1246 120.092L38.6733 124.441L33.4351 127.352L32.4121 122.036Z" fill="#00236A"/>
<path d="M79.165 27.4996L118.132 0.383957C119.128 -0.308526 120.503 -0.0381277 121.159 0.984108L153.577 51.4331C154.25 52.4817 153.917 53.8799 152.842 54.513L120.951 73.2496C120.074 73.7673 118.953 73.609 118.254 72.8704L78.7792 31.2917C77.7207 30.1772 77.9054 28.38 79.165 27.5029V27.4996Z" fill="white" stroke="#222222" stroke-width="0.659507" stroke-miterlimit="10"/>
<path d="M119.408 42.9222V47.1332L124.684 43.6543L120.529 41.8011C120.704 41.8505 123.144 42.5166 125.077 40.8481C126.491 39.628 127.062 37.6495 126.537 35.7963C126.455 35.6083 125.575 33.7056 123.451 33.2704C121.875 32.9472 120.226 33.5572 119.184 34.8433C119.128 34.6059 118.567 32.3866 116.322 31.4204C114.125 30.474 112.17 31.5194 111.943 31.6447C110.508 32.6339 109.779 34.3355 110.089 35.9677C110.478 38.0155 112.312 38.9091 112.503 38.9982C112.114 39.2125 111.204 39.783 110.706 40.9074C110.086 42.3089 110.36 44.0071 111.379 45.3426C112.15 46.0417 112.876 46.2857 113.334 46.3847C115.428 46.8265 117.852 45.4547 119.405 42.9288L119.408 42.9222Z" fill="#222222" stroke="#222222" stroke-width="0.659507" stroke-miterlimit="10"/>
<path d="M95.2074 35.3608V37.2239L97.796 35.684L95.7581 34.8629C95.8438 34.886 97.0408 35.1795 97.9872 34.4408C98.6797 33.9 98.96 33.0262 98.7028 32.2051C98.6632 32.1226 98.2312 31.2818 97.1892 31.0872C96.4143 30.9454 95.6064 31.2125 95.0986 31.783C95.0722 31.6775 94.7952 30.6948 93.6938 30.2694C92.6188 29.8506 91.656 30.3123 91.5471 30.3684C90.8448 30.8069 90.4853 31.5588 90.6403 32.2809C90.8316 33.1877 91.7285 33.5835 91.8241 33.623C91.6329 33.7187 91.1877 33.9693 90.9437 34.4672C90.6403 35.0871 90.7722 35.839 91.2734 36.4292C91.6527 36.7392 92.0088 36.848 92.233 36.8909C93.2619 37.0854 94.449 36.4787 95.2107 35.3608H95.2074Z" fill="#222222" stroke="#222222" stroke-width="0.659507" stroke-miterlimit="10"/>
<path d="M140.051 46.1009V44.2378L137.462 45.7777L139.5 46.5988C139.414 46.5757 138.217 46.2823 137.271 47.0209C136.578 47.5617 136.298 48.4356 136.555 49.2566C136.595 49.3391 137.027 50.18 138.069 50.3745C138.844 50.5163 139.652 50.2492 140.159 49.6787C140.186 49.7842 140.463 50.7669 141.564 51.1923C142.639 51.6111 143.602 51.1494 143.711 51.0934C144.413 50.6548 144.773 49.903 144.618 49.1808C144.426 48.274 143.53 47.8783 143.434 47.8387C143.625 47.7431 144.07 47.4925 144.314 46.9945C144.618 46.3746 144.486 45.6228 143.985 45.0325C143.605 44.7225 143.249 44.6137 143.025 44.5708C141.996 44.3763 140.809 44.983 140.047 46.1009H140.051Z" fill="#222222" stroke="#222222" stroke-width="0.659507" stroke-miterlimit="10"/>
<mask id="path-29-outside-1_1_3242" maskUnits="userSpaceOnUse" x="83.5665" y="23.2226" width="9.02997" height="9.31366" fill="black">
<rect fill="white" x="83.5665" y="23.2226" width="9.02997" height="9.31366"/>
<path d="M91.4946 28.8906L90.5764 29.683L88.8406 27.6978L88.1455 28.3056L89.8813 30.2908L88.9682 31.0892L86.0529 27.755C85.9087 27.5901 85.8044 27.4075 85.7402 27.2072C85.676 27.007 85.6508 26.8038 85.6646 26.5977C85.6784 26.3916 85.7305 26.1936 85.8209 26.0037C85.9152 25.8104 86.0414 25.6377 86.1994 25.4856L86.653 25.089C86.7674 24.9821 86.8945 24.9055 87.0344 24.8595C87.1748 24.806 87.3169 24.7823 87.4606 24.7882C87.6044 24.7942 87.7426 24.8293 87.875 24.8936C88.0115 24.9545 88.1312 25.0439 88.2342 25.1617L91.4946 28.8906ZM88.0937 26.8437L87.3314 25.9718C87.2484 26.0513 87.1593 26.1396 87.0641 26.2368C86.9654 26.33 86.9097 26.4445 86.8969 26.5805C86.8929 26.6394 86.8983 26.697 86.913 26.7535C86.9243 26.806 86.9481 26.8649 86.9844 26.9302C87.0246 26.992 87.0788 27.0659 87.147 27.1518C87.2117 27.2338 87.2956 27.3337 87.3986 27.4515L88.0937 26.8437Z"/>
</mask>
<path d="M91.4946 28.8906L90.5764 29.683L88.8406 27.6978L88.1455 28.3056L89.8813 30.2908L88.9682 31.0892L86.0529 27.755C85.9087 27.5901 85.8044 27.4075 85.7402 27.2072C85.676 27.007 85.6508 26.8038 85.6646 26.5977C85.6784 26.3916 85.7305 26.1936 85.8209 26.0037C85.9152 25.8104 86.0414 25.6377 86.1994 25.4856L86.653 25.089C86.7674 24.9821 86.8945 24.9055 87.0344 24.8595C87.1748 24.806 87.3169 24.7823 87.4606 24.7882C87.6044 24.7942 87.7426 24.8293 87.875 24.8936C88.0115 24.9545 88.1312 25.0439 88.2342 25.1617L91.4946 28.8906ZM88.0937 26.8437L87.3314 25.9718C87.2484 26.0513 87.1593 26.1396 87.0641 26.2368C86.9654 26.33 86.9097 26.4445 86.8969 26.5805C86.8929 26.6394 86.8983 26.697 86.913 26.7535C86.9243 26.806 86.9481 26.8649 86.9844 26.9302C87.0246 26.992 87.0788 27.0659 87.147 27.1518C87.2117 27.2338 87.2956 27.3337 87.3986 27.4515L88.0937 26.8437Z" fill="#222222"/>
<path d="M91.4946 28.8906L91.5311 28.9328L91.5737 28.8961L91.5367 28.8538L91.4946 28.8906ZM90.5764 29.683L90.5344 29.7198L90.5709 29.7616L90.6129 29.7253L90.5764 29.683ZM88.8406 27.6978L88.8826 27.6611L88.8459 27.619L88.8038 27.6558L88.8406 27.6978ZM88.1455 28.3056L88.1087 28.2636L88.0667 28.3004L88.1034 28.3424L88.1455 28.3056ZM89.8813 30.2908L89.9181 30.3329L89.9601 30.2961L89.9233 30.2541L89.8813 30.2908ZM88.9682 31.0892L88.9262 31.126L88.963 31.168L89.005 31.1312L88.9682 31.0892ZM85.7402 27.2072L85.7934 27.1902L85.7402 27.2072ZM85.6646 26.5977L85.6089 26.594L85.6646 26.5977ZM85.8209 26.0037L85.7707 25.9792L85.7705 25.9797L85.8209 26.0037ZM86.1994 25.4856L86.1626 25.4435L86.1607 25.4454L86.1994 25.4856ZM86.653 25.089L86.6898 25.1311L86.6912 25.1298L86.653 25.089ZM87.0344 24.8595L87.0519 24.9126L87.0543 24.9117L87.0344 24.8595ZM87.875 24.8936L87.8506 24.9439L87.8523 24.9446L87.875 24.8936ZM88.0937 26.8437L88.1305 26.8857L88.1725 26.849L88.1358 26.8069L88.0937 26.8437ZM87.3314 25.9718L87.3735 25.9351L87.335 25.8911L87.2928 25.9315L87.3314 25.9718ZM87.0641 26.2368L87.1025 26.2774L87.104 26.2759L87.0641 26.2368ZM86.8969 26.5805L86.8413 26.5752L86.8412 26.5767L86.8969 26.5805ZM86.913 26.7535L86.9677 26.7417L86.9671 26.7394L86.913 26.7535ZM86.9844 26.9302L86.9354 26.9574L86.9375 26.9606L86.9844 26.9302ZM87.147 27.1518L87.1908 27.1172L87.1907 27.1171L87.147 27.1518ZM87.3986 27.4515L87.3566 27.4882L87.3933 27.5303L87.4354 27.4935L87.3986 27.4515ZM91.4946 28.8906L91.4581 28.8483L90.5399 29.6408L90.5764 29.683L90.6129 29.7253L91.5311 28.9328L91.4946 28.8906ZM90.5764 29.683L90.6185 29.6463L88.8826 27.6611L88.8406 27.6978L88.7986 27.7346L90.5344 29.7198L90.5764 29.683ZM88.8406 27.6978L88.8038 27.6558L88.1087 28.2636L88.1455 28.3056L88.1822 28.3477L88.8774 27.7399L88.8406 27.6978ZM88.1455 28.3056L88.1034 28.3424L89.8393 30.3276L89.8813 30.2908L89.9233 30.2541L88.1875 28.2689L88.1455 28.3056ZM89.8813 30.2908L89.8445 30.2488L88.9315 31.0472L88.9682 31.0892L89.005 31.1312L89.9181 30.3329L89.8813 30.2908ZM88.9682 31.0892L89.0103 31.0524L86.0949 27.7183L86.0529 27.755L86.0108 27.7918L88.9262 31.126L88.9682 31.0892ZM86.0529 27.755L86.0949 27.7183C85.9555 27.5588 85.8552 27.3829 85.7934 27.1902L85.7402 27.2072L85.687 27.2243C85.7537 27.4321 85.8618 27.6214 86.0108 27.7918L86.0529 27.755ZM85.7402 27.2072L85.7934 27.1902C85.7313 26.9965 85.707 26.8004 85.7203 26.6014L85.6646 26.5977L85.6089 26.594C85.5946 26.8072 85.6207 27.0175 85.687 27.2243L85.7402 27.2072ZM85.6646 26.5977L85.7203 26.6014C85.7337 26.4025 85.7839 26.2114 85.8713 26.0277L85.8209 26.0037L85.7705 25.9797C85.6771 26.1758 85.6232 26.3807 85.6089 26.594L85.6646 26.5977ZM85.8209 26.0037L85.8711 26.0282C85.9624 25.8409 86.0847 25.6735 86.2381 25.5259L86.1994 25.4856L86.1607 25.4454C85.998 25.6019 85.8679 25.7799 85.7707 25.9792L85.8209 26.0037ZM86.1994 25.4856L86.2362 25.5277L86.6898 25.131L86.653 25.089L86.6163 25.047L86.1627 25.4436L86.1994 25.4856ZM86.653 25.089L86.6912 25.1298C86.8 25.028 86.9202 24.9559 87.0519 24.9125L87.0344 24.8595L87.0169 24.8064C86.8689 24.8552 86.7348 24.9361 86.6149 25.0482L86.653 25.089ZM87.0344 24.8595L87.0543 24.9117C87.1879 24.8608 87.3224 24.8384 87.4583 24.844L87.4606 24.7882L87.463 24.7324C87.3113 24.7261 87.1617 24.7513 87.0145 24.8073L87.0344 24.8595ZM87.4606 24.7882L87.4583 24.844C87.5943 24.8496 87.7249 24.8828 87.8507 24.9439L87.875 24.8936L87.8994 24.8434C87.7602 24.7758 87.6146 24.7387 87.463 24.7324L87.4606 24.7882ZM87.875 24.8936L87.8523 24.9446C87.981 25.0021 88.0942 25.0864 88.1921 25.1985L88.2342 25.1617L88.2762 25.1249C88.1681 25.0013 88.042 24.907 87.8978 24.8426L87.875 24.8936ZM88.2342 25.1617L88.1921 25.1985L91.4526 28.9273L91.4946 28.8906L91.5367 28.8538L88.2762 25.1249L88.2342 25.1617ZM88.0937 26.8437L88.1358 26.8069L87.3735 25.9351L87.3314 25.9718L87.2894 26.0086L88.0517 26.8804L88.0937 26.8437ZM87.3314 25.9718L87.2928 25.9315C87.2093 26.0115 87.1198 26.1002 87.0242 26.1977L87.0641 26.2368L87.104 26.2759C87.1989 26.1791 87.2876 26.0912 87.37 26.0122L87.3314 25.9718ZM87.0641 26.2368L87.0258 26.1962C86.9172 26.2987 86.8554 26.4259 86.8413 26.5752L86.8969 26.5805L86.9525 26.5857C86.964 26.4632 87.0137 26.3612 87.1025 26.2774L87.0641 26.2368ZM86.8969 26.5805L86.8412 26.5767C86.8368 26.6415 86.8427 26.7052 86.859 26.7675L86.913 26.7535L86.9671 26.7394C86.9539 26.6888 86.9491 26.6372 86.9526 26.5842L86.8969 26.5805ZM86.913 26.7535L86.8584 26.7652C86.8712 26.8247 86.8975 26.8889 86.9356 26.9573L86.9844 26.9302L87.0332 26.903C86.9986 26.8408 86.9774 26.7872 86.9676 26.7417L86.913 26.7535ZM86.9844 26.9302L86.9375 26.9606C86.9791 27.0244 87.0344 27.0998 87.1032 27.1865L87.147 27.1518L87.1907 27.1171C87.1232 27.0319 87.0701 26.9596 87.0312 26.8997L86.9844 26.9302ZM87.147 27.1518L87.1031 27.1864C87.1687 27.2694 87.2532 27.37 87.3566 27.4882L87.3986 27.4515L87.4407 27.4147C87.338 27.2973 87.2548 27.1982 87.1908 27.1172L87.147 27.1518ZM87.3986 27.4515L87.4354 27.4935L88.1305 26.8857L88.0937 26.8437L88.057 26.8016L87.3619 27.4094L87.3986 27.4515Z" fill="#222222" mask="url(#path-29-outside-1_1_3242)"/>
<mask id="path-31-outside-2_1_3242" maskUnits="userSpaceOnUse" x="142.194" y="49.1101" width="6.88622" height="7.17962" fill="black">
<rect fill="white" x="142.194" y="49.1101" width="6.88622" height="7.17962"/>
<path d="M143.297 52.0152L144.013 51.4417L145.271 52.9915L145.813 52.5513L144.556 51.0015L145.269 50.4234L147.38 53.0263C147.485 53.155 147.558 53.296 147.601 53.4493C147.644 53.6025 147.658 53.7568 147.641 53.9123C147.625 54.0678 147.58 54.216 147.507 54.3571C147.43 54.5007 147.33 54.6277 147.206 54.7383L146.852 55.0255C146.762 55.1032 146.664 55.1575 146.557 55.1884C146.449 55.2249 146.341 55.2389 146.233 55.2304C146.124 55.2218 146.021 55.1914 145.922 55.1391C145.821 55.0892 145.733 55.0183 145.658 54.9263L143.297 52.0152ZM145.811 53.6583L146.363 54.3389C146.428 54.2811 146.498 54.2169 146.573 54.1461C146.65 54.0784 146.696 53.9933 146.709 53.8908C146.714 53.8464 146.711 53.8027 146.702 53.7596C146.695 53.7195 146.678 53.6743 146.653 53.624C146.624 53.5761 146.585 53.5187 146.536 53.4518C146.489 53.388 146.429 53.3101 146.354 53.2181L145.811 53.6583Z"/>
</mask>
<path d="M143.297 52.0152L144.013 51.4417L145.271 52.9915L145.813 52.5513L144.556 51.0015L145.269 50.4234L147.38 53.0263C147.485 53.155 147.558 53.296 147.601 53.4493C147.644 53.6025 147.658 53.7568 147.641 53.9123C147.625 54.0678 147.58 54.216 147.507 54.3571C147.43 54.5007 147.33 54.6277 147.206 54.7383L146.852 55.0255C146.762 55.1032 146.664 55.1575 146.557 55.1884C146.449 55.2249 146.341 55.2389 146.233 55.2304C146.124 55.2218 146.021 55.1914 145.922 55.1391C145.821 55.0892 145.733 55.0183 145.658 54.9263L143.297 52.0152ZM145.811 53.6583L146.363 54.3389C146.428 54.2811 146.498 54.2169 146.573 54.1461C146.65 54.0784 146.696 53.9933 146.709 53.8908C146.714 53.8464 146.711 53.8027 146.702 53.7596C146.695 53.7195 146.678 53.6743 146.653 53.624C146.624 53.5761 146.585 53.5187 146.536 53.4518C146.489 53.388 146.429 53.3101 146.354 53.2181L145.811 53.6583Z" fill="#222222"/>
<path d="M143.297 52.0152L143.271 51.9823L143.237 52.0088L143.264 52.0419L143.297 52.0152ZM144.013 51.4417L144.046 51.4151L144.02 51.3824L143.987 51.4087L144.013 51.4417ZM145.271 52.9915L145.238 53.0181L145.264 53.0509L145.297 53.0243L145.271 52.9915ZM145.813 52.5513L145.84 52.5841L145.873 52.5575L145.846 52.5247L145.813 52.5513ZM144.556 51.0015L144.53 50.9687L144.497 50.9953L144.523 51.0281L144.556 51.0015ZM145.269 50.4234L145.302 50.3967L145.275 50.3639L145.242 50.3905L145.269 50.4234ZM147.601 53.4493L147.561 53.4607L147.601 53.4493ZM147.641 53.9123L147.683 53.9167L147.641 53.9123ZM147.507 54.3571L147.544 54.377L147.544 54.3767L147.507 54.3571ZM147.206 54.7383L147.232 54.7712L147.234 54.7698L147.206 54.7383ZM146.852 55.0255L146.825 54.9927L146.824 54.9936L146.852 55.0255ZM146.557 55.1884L146.545 55.1478L146.543 55.1484L146.557 55.1884ZM145.922 55.1391L145.942 55.1017L145.941 55.1011L145.922 55.1391ZM145.811 53.6583L145.785 53.6255L145.752 53.6521L145.779 53.6849L145.811 53.6583ZM146.363 54.3389L146.331 54.3655L146.358 54.3999L146.392 54.3705L146.363 54.3389ZM146.573 54.1461L146.545 54.1143L146.544 54.1154L146.573 54.1461ZM146.709 53.8908L146.751 53.8964L146.751 53.8952L146.709 53.8908ZM146.702 53.7596L146.66 53.7669L146.66 53.7687L146.702 53.7596ZM146.653 53.624L146.69 53.6048L146.689 53.6022L146.653 53.624ZM146.536 53.4518L146.502 53.4768L146.502 53.4768L146.536 53.4518ZM146.354 53.2181L146.387 53.1915L146.36 53.1587L146.327 53.1853L146.354 53.2181ZM143.297 52.0152L143.323 52.0482L144.04 51.4747L144.013 51.4417L143.987 51.4087L143.271 51.9823L143.297 52.0152ZM144.013 51.4417L143.981 51.4683L145.238 53.0181L145.271 52.9915L145.303 52.9648L144.046 51.4151L144.013 51.4417ZM145.271 52.9915L145.297 53.0243L145.84 52.5841L145.813 52.5513L145.787 52.5185L145.244 52.9586L145.271 52.9915ZM145.813 52.5513L145.846 52.5247L144.589 50.9749L144.556 51.0015L144.523 51.0281L145.78 52.5779L145.813 52.5513ZM144.556 51.0015L144.583 51.0343L145.296 50.4562L145.269 50.4234L145.242 50.3905L144.53 50.9687L144.556 51.0015ZM145.269 50.4234L145.236 50.45L147.347 53.0529L147.38 53.0263L147.413 52.9997L145.302 50.3967L145.269 50.4234ZM147.38 53.0263L147.347 53.0529C147.448 53.1774 147.519 53.3132 147.561 53.4607L147.601 53.4493L147.642 53.4379C147.597 53.2788 147.521 53.1327 147.413 52.9997L147.38 53.0263ZM147.601 53.4493L147.561 53.4607C147.602 53.6089 147.615 53.7578 147.599 53.9079L147.641 53.9123L147.683 53.9167C147.7 53.7558 147.686 53.5961 147.642 53.4379L147.601 53.4493ZM147.641 53.9123L147.599 53.9079C147.584 54.058 147.54 54.2011 147.469 54.3376L147.507 54.3571L147.544 54.3767C147.62 54.231 147.667 54.0776 147.683 53.9167L147.641 53.9123ZM147.507 54.3571L147.469 54.3372C147.395 54.4763 147.298 54.5994 147.178 54.7068L147.206 54.7383L147.234 54.7698C147.361 54.656 147.465 54.525 147.544 54.377L147.507 54.3571ZM147.206 54.7383L147.179 54.7055L146.825 54.9927L146.852 55.0255L146.878 55.0583L147.232 54.7711L147.206 54.7383ZM146.852 55.0255L146.824 54.9936C146.739 55.0675 146.646 55.1187 146.545 55.1478L146.557 55.1884L146.569 55.229C146.682 55.1963 146.786 55.1389 146.879 55.0574L146.852 55.0255ZM146.557 55.1884L146.543 55.1484C146.441 55.1831 146.338 55.1963 146.236 55.1882L146.233 55.2304L146.229 55.2725C146.344 55.2815 146.458 55.2667 146.57 55.2284L146.557 55.1884ZM146.233 55.2304L146.236 55.1882C146.133 55.1802 146.035 55.1514 145.942 55.1017L145.922 55.1391L145.902 55.1764C146.006 55.2314 146.115 55.2635 146.229 55.2725L146.233 55.2304ZM145.922 55.1391L145.941 55.1011C145.845 55.0541 145.762 54.9871 145.691 54.8997L145.658 54.9263L145.625 54.9529C145.704 55.0494 145.796 55.1243 145.904 55.177L145.922 55.1391ZM145.658 54.9263L145.691 54.8997L143.33 51.9886L143.297 52.0152L143.264 52.0419L145.625 54.9529L145.658 54.9263ZM145.811 53.6583L145.779 53.6849L146.331 54.3655L146.363 54.3389L146.396 54.3123L145.844 53.6317L145.811 53.6583ZM146.363 54.3389L146.392 54.3705C146.457 54.3124 146.527 54.2478 146.602 54.1768L146.573 54.1461L146.544 54.1154C146.469 54.1859 146.4 54.2499 146.335 54.3073L146.363 54.3389ZM146.573 54.1461L146.601 54.1778C146.686 54.1033 146.736 54.0089 146.751 53.8964L146.709 53.8908L146.667 53.8853C146.655 53.9777 146.615 54.0534 146.545 54.1143L146.573 54.1461ZM146.709 53.8908L146.751 53.8952C146.756 53.8463 146.753 53.798 146.743 53.7504L146.702 53.7596L146.66 53.7687C146.669 53.8073 146.671 53.8465 146.667 53.8865L146.709 53.8908ZM146.702 53.7596L146.743 53.7522C146.735 53.7068 146.717 53.6576 146.69 53.6048L146.653 53.624L146.615 53.6431C146.639 53.6911 146.654 53.7322 146.66 53.7669L146.702 53.7596ZM146.653 53.624L146.689 53.6022C146.659 53.5528 146.62 53.4943 146.57 53.4268L146.536 53.4518L146.502 53.4768C146.551 53.5431 146.589 53.5993 146.616 53.6457L146.653 53.624ZM146.536 53.4518L146.57 53.4269C146.523 53.3623 146.462 53.2838 146.387 53.1915L146.354 53.2181L146.321 53.2448C146.396 53.3364 146.456 53.4137 146.502 53.4768L146.536 53.4518ZM146.354 53.2181L146.327 53.1853L145.785 53.6255L145.811 53.6583L145.838 53.6911L146.381 53.251L146.354 53.2181Z" fill="#222222" mask="url(#path-31-outside-2_1_3242)"/>
<path d="M64.5206 143.949L12.3569 202.549C10.6257 204.495 11.0017 207.515 13.1549 208.979L59.0731 240.171C61.0417 241.506 63.7193 240.995 65.0581 239.03L115.784 164.423C117.383 162.072 116.305 158.84 113.611 157.92L69.1339 142.738C67.4917 142.178 65.6748 142.656 64.5239 143.952L64.5206 143.949Z" fill="white" stroke="#222222" stroke-width="0.659507" stroke-miterlimit="10"/>
<path d="M70.7761 175.546L65.3022 177.369C65.0219 177.462 64.7317 177.528 64.4415 177.564C55.5843 178.718 49.3124 182.138 48.831 186.21C48.7452 186.929 48.8244 187.806 49.2794 188.848C49.7312 189.511 50.4303 190.286 51.469 190.813C53.7509 191.967 56.7418 191.446 59.2149 189.58C58.4763 190.362 57.4309 191.209 56.1713 192.119C54.4467 193.369 52.3132 194.576 50.6842 194.408L58.318 198.619C58.318 198.619 57.4771 192.726 60.6197 190.536C60.0459 192.564 60.5801 194.711 62.0244 196.093C63.6303 197.629 65.6748 197.57 66.0672 197.554C68.2304 197.629 69.5296 197.009 70.2781 196.488C73.8527 193.989 74.5056 186.985 71.2575 179.173C71.0827 178.751 70.9706 178.303 70.9377 177.847C70.8849 177.082 70.8354 176.317 70.7827 175.552L70.7761 175.546Z" fill="#222222" stroke="#222222" stroke-width="0.659507" stroke-miterlimit="10"/>
<path d="M67.5214 153.258L65.477 153.924C65.3715 153.957 65.2626 153.98 65.1538 153.996C61.8431 154.418 59.4985 155.665 59.3205 157.152C59.2875 157.416 59.3205 157.736 59.4887 158.115C59.6568 158.356 59.9206 158.639 60.3064 158.834C61.1605 159.256 62.2751 159.065 63.2017 158.382C62.9247 158.669 62.5356 158.976 62.064 159.309C61.4177 159.764 60.623 160.206 60.013 160.143L62.8653 161.68C62.8653 161.68 62.5521 159.526 63.726 158.728C63.5116 159.47 63.7095 160.252 64.2503 160.756C64.8504 161.317 65.6155 161.297 65.7606 161.29C66.5685 161.32 67.0532 161.093 67.3335 160.901C68.669 159.988 68.913 157.432 67.6995 154.58C67.6336 154.425 67.5907 154.263 67.5808 154.095C67.561 153.815 67.5412 153.538 67.5247 153.258H67.5214Z" fill="#222222" stroke="#222222" stroke-width="0.659507" stroke-miterlimit="10"/>
<path d="M60.2734 225.632L62.3179 224.966C62.4234 224.933 62.5322 224.91 62.641 224.893C65.9518 224.471 68.2963 223.225 68.4744 221.737C68.5073 221.474 68.4744 221.154 68.3062 220.775C68.138 220.534 67.8742 220.25 67.4884 220.056C66.6343 219.634 65.5198 219.825 64.5932 220.507C64.8702 220.221 65.2593 219.914 65.7308 219.581C66.3771 219.126 67.1718 218.684 67.7819 218.747L64.9295 217.21C64.9295 217.21 65.2428 219.363 64.0689 220.161C64.2832 219.419 64.0853 218.638 63.5446 218.133C62.9444 217.573 62.1794 217.592 62.0343 217.599C61.2264 217.569 60.7417 217.797 60.4614 217.988C59.1259 218.902 58.8818 221.457 60.0953 224.31C60.1613 224.465 60.2042 224.626 60.214 224.794C60.2338 225.075 60.2536 225.352 60.2701 225.632H60.2734Z" fill="#222222" stroke="#222222" stroke-width="0.659507" stroke-miterlimit="10"/>
<mask id="path-37-outside-3_1_3242" maskUnits="userSpaceOnUse" x="65.4162" y="145.433" width="8.7182" height="9.41612" fill="black">
<rect fill="white" x="65.4162" y="145.433" width="8.7182" height="9.41612"/>
<path d="M69.5767 153.695L68.5942 152.984L70.1267 150.838L69.3753 150.301L67.8428 152.447L66.8557 151.742L69.4297 148.138C69.557 147.96 69.7107 147.816 69.8908 147.708C70.0709 147.599 70.2629 147.528 70.4666 147.494C70.6704 147.46 70.875 147.465 71.0806 147.509C71.2905 147.557 71.4876 147.64 71.6719 147.759L72.1623 148.109C72.2926 148.195 72.3964 148.302 72.4734 148.427C72.5577 148.551 72.6135 148.684 72.6408 148.825C72.6681 148.967 72.6657 149.109 72.6336 149.253C72.6057 149.4 72.5463 149.537 72.4553 149.664L69.5767 153.695ZM70.7861 149.914L71.4592 148.972C71.3628 148.91 71.2563 148.843 71.1399 148.773C71.0265 148.698 70.9021 148.67 70.7669 148.689C70.7087 148.699 70.6538 148.717 70.6023 148.745C70.5538 148.768 70.5019 148.804 70.4467 148.855C70.3958 148.908 70.3364 148.978 70.2685 149.064C70.2036 149.146 70.1257 149.251 70.0347 149.378L70.7861 149.914Z"/>
</mask>
<path d="M69.5767 153.695L68.5942 152.984L70.1267 150.838L69.3753 150.301L67.8428 152.447L66.8557 151.742L69.4297 148.138C69.557 147.96 69.7107 147.816 69.8908 147.708C70.0709 147.599 70.2629 147.528 70.4666 147.494C70.6704 147.46 70.875 147.465 71.0806 147.509C71.2905 147.557 71.4876 147.64 71.6719 147.759L72.1623 148.109C72.2926 148.195 72.3964 148.302 72.4734 148.427C72.5577 148.551 72.6135 148.684 72.6408 148.825C72.6681 148.967 72.6657 149.109 72.6336 149.253C72.6057 149.4 72.5463 149.537 72.4553 149.664L69.5767 153.695ZM70.7861 149.914L71.4592 148.972C71.3628 148.91 71.2563 148.843 71.1399 148.773C71.0265 148.698 70.9021 148.67 70.7669 148.689C70.7087 148.699 70.6538 148.717 70.6023 148.745C70.5538 148.768 70.5019 148.804 70.4467 148.855C70.3958 148.908 70.3364 148.978 70.2685 149.064C70.2036 149.146 70.1257 149.251 70.0347 149.378L70.7861 149.914Z" fill="#222222"/>
<path d="M69.5767 153.695L69.544 153.74L69.5895 153.773L69.6222 153.728L69.5767 153.695ZM68.5942 152.984L68.5488 152.951L68.5165 152.997L68.5615 153.029L68.5942 152.984ZM70.1267 150.838L70.1722 150.87L70.2047 150.825L70.1592 150.792L70.1267 150.838ZM69.3753 150.301L69.4078 150.256L69.3623 150.223L69.3299 150.269L69.3753 150.301ZM67.8428 152.447L67.8103 152.493L67.8558 152.525L67.8882 152.48L67.8428 152.447ZM66.8557 151.742L66.8103 151.71L66.7778 151.755L66.8233 151.788L66.8557 151.742ZM69.8908 147.708L69.9197 147.756L69.8908 147.708ZM70.4666 147.494L70.4574 147.439L70.4666 147.494ZM71.0806 147.509L71.0929 147.455L71.0924 147.455L71.0806 147.509ZM71.6719 147.759L71.7044 147.713L71.7022 147.712L71.6719 147.759ZM72.1623 148.109L72.1298 148.154L72.1313 148.155L72.1623 148.109ZM72.4734 148.427L72.4257 148.456L72.4272 148.458L72.4734 148.427ZM72.6336 149.253L72.579 149.241L72.5787 149.243L72.6336 149.253ZM70.7861 149.914L70.7537 149.96L70.7991 149.992L70.8316 149.947L70.7861 149.914ZM71.4592 148.972L71.5046 149.004L71.5386 148.957L71.4895 148.925L71.4592 148.972ZM71.1399 148.773L71.1092 148.82L71.111 148.821L71.1399 148.773ZM70.7669 148.689L70.7592 148.634L70.7577 148.634L70.7669 148.689ZM70.6023 148.745L70.6263 148.795L70.6284 148.794L70.6023 148.745ZM70.4467 148.855L70.409 148.813L70.4063 148.816L70.4467 148.855ZM70.2685 149.064L70.3122 149.099L70.3123 149.099L70.2685 149.064ZM70.0347 149.378L69.9893 149.345L69.9568 149.391L70.0023 149.423L70.0347 149.378ZM69.5767 153.695L69.6095 153.65L68.627 152.939L68.5942 152.984L68.5615 153.029L69.544 153.74L69.5767 153.695ZM68.5942 152.984L68.6397 153.016L70.1722 150.87L70.1267 150.838L70.0813 150.805L68.5488 152.951L68.5942 152.984ZM70.1267 150.838L70.1592 150.792L69.4078 150.256L69.3753 150.301L69.3429 150.347L70.0943 150.883L70.1267 150.838ZM69.3753 150.301L69.3299 150.269L67.7973 152.415L67.8428 152.447L67.8882 152.48L69.4208 150.334L69.3753 150.301ZM67.8428 152.447L67.8752 152.402L66.8882 151.697L66.8557 151.742L66.8233 151.788L67.8103 152.493L67.8428 152.447ZM66.8557 151.742L66.9012 151.775L69.4751 148.171L69.4297 148.138L69.3842 148.106L66.8103 151.71L66.8557 151.742ZM69.4297 148.138L69.4751 148.171C69.5982 147.998 69.7464 147.86 69.9197 147.756L69.8908 147.708L69.862 147.66C69.6751 147.773 69.5158 147.921 69.3842 148.106L69.4297 148.138ZM69.8908 147.708L69.9197 147.756C70.0938 147.651 70.2791 147.582 70.4758 147.549L70.4666 147.494L70.4574 147.439C70.2466 147.474 70.048 147.548 69.862 147.66L69.8908 147.708ZM70.4666 147.494L70.4758 147.549C70.6725 147.516 70.87 147.521 71.0689 147.564L71.0806 147.509L71.0924 147.455C70.88 147.409 70.6683 147.404 70.4574 147.439L70.4666 147.494ZM71.0806 147.509L71.0683 147.564C71.2717 147.61 71.4627 147.69 71.6417 147.805L71.6719 147.759L71.7022 147.712C71.5124 147.589 71.3092 147.504 71.0929 147.455L71.0806 147.509ZM71.6719 147.759L71.6395 147.804L72.1298 148.154L72.1623 148.109L72.1947 148.063L71.7044 147.713L71.6719 147.759ZM72.1623 148.109L72.1313 148.155C72.2554 148.238 72.3533 148.338 72.4258 148.456L72.4734 148.427L72.521 148.398C72.4395 148.265 72.3299 148.153 72.1932 148.062L72.1623 148.109ZM72.4734 148.427L72.4272 148.458C72.5074 148.577 72.5602 148.702 72.586 148.836L72.6408 148.825L72.6956 148.815C72.6668 148.666 72.608 148.526 72.5196 148.396L72.4734 148.427ZM72.6408 148.825L72.586 148.836C72.6118 148.97 72.6096 149.104 72.5791 149.241L72.6336 149.253L72.6881 149.265C72.7218 149.114 72.7244 148.964 72.6956 148.815L72.6408 148.825ZM72.6336 149.253L72.5787 149.243C72.5524 149.381 72.4964 149.511 72.4099 149.632L72.4553 149.664L72.5008 149.697C72.5962 149.563 72.659 149.418 72.6884 149.263L72.6336 149.253ZM72.4553 149.664L72.4099 149.632L69.5313 153.663L69.5767 153.695L69.6222 153.728L72.5008 149.697L72.4553 149.664ZM70.7861 149.914L70.8316 149.947L71.5046 149.004L71.4592 148.972L71.4137 148.94L70.7407 149.882L70.7861 149.914ZM71.4592 148.972L71.4895 148.925C71.3925 148.862 71.2856 148.796 71.1688 148.725L71.1399 148.773L71.111 148.821C71.227 148.891 71.333 148.957 71.4288 149.019L71.4592 148.972ZM71.1399 148.773L71.1706 148.726C71.0458 148.644 70.9078 148.613 70.7592 148.634L70.7669 148.689L70.7746 148.745C70.8965 148.728 71.0072 148.752 71.1092 148.82L71.1399 148.773ZM70.7669 148.689L70.7577 148.634C70.6937 148.645 70.6331 148.665 70.5761 148.695L70.6023 148.745L70.6284 148.794C70.6746 148.77 70.7237 148.753 70.7761 148.744L70.7669 148.689ZM70.6023 148.745L70.5783 148.694C70.5233 148.72 70.4669 148.761 70.4091 148.814L70.4467 148.855L70.4844 148.896C70.5369 148.848 70.5842 148.815 70.6262 148.795L70.6023 148.745ZM70.4467 148.855L70.4063 148.816C70.3538 148.871 70.2931 148.943 70.2246 149.029L70.2685 149.064L70.3123 149.099C70.3796 149.013 70.4378 148.945 70.4871 148.893L70.4467 148.855ZM70.2685 149.064L70.2247 149.029C70.159 149.112 70.0805 149.218 69.9893 149.345L70.0347 149.378L70.0802 149.41C70.1708 149.283 70.2481 149.18 70.3122 149.099L70.2685 149.064ZM70.0347 149.378L70.0023 149.423L70.7537 149.96L70.7861 149.914L70.8186 149.869L70.0672 149.332L70.0347 149.378Z" fill="#222222" mask="url(#path-37-outside-3_1_3242)"/>
<mask id="path-39-outside-4_1_3242" maskUnits="userSpaceOnUse" x="52.6449" y="225.126" width="8.62785" height="9.42746" fill="black">
<rect fill="white" x="52.6449" y="225.126" width="8.62785" height="9.42746"/>
<path d="M60.2226 228.418L59.2143 227.744L57.7345 229.927L56.9702 229.409L58.4501 227.226L57.4461 226.545L54.9607 230.211C54.8378 230.392 54.7567 230.586 54.7175 230.793C54.6782 231 54.6781 231.204 54.717 231.407C54.756 231.61 54.8319 231.8 54.9448 231.978C55.062 232.158 55.2084 232.314 55.3839 232.446L55.8826 232.784C56.0092 232.876 56.1448 232.936 56.2892 232.965C56.4351 233.001 56.579 233.007 56.721 232.983C56.863 232.96 56.9958 232.908 57.1194 232.828C57.2473 232.751 57.3552 232.648 57.443 232.518L60.2226 228.418ZM57.0978 230.866L56.4479 231.824C56.3558 231.756 56.2566 231.679 56.1502 231.594C56.0408 231.514 55.9715 231.407 55.9421 231.274C55.931 231.216 55.9293 231.158 55.937 231.1C55.9417 231.046 55.9581 230.985 55.9862 230.916C56.0185 230.85 56.0633 230.77 56.1204 230.676C56.1747 230.587 56.2457 230.477 56.3335 230.348L57.0978 230.866Z"/>
</mask>
<path d="M60.2226 228.418L59.2143 227.744L57.7345 229.927L56.9702 229.409L58.4501 227.226L57.4461 226.545L54.9607 230.211C54.8378 230.392 54.7567 230.586 54.7175 230.793C54.6782 231 54.6781 231.204 54.717 231.407C54.756 231.61 54.8319 231.8 54.9448 231.978C55.062 232.158 55.2084 232.314 55.3839 232.446L55.8826 232.784C56.0092 232.876 56.1448 232.936 56.2892 232.965C56.4351 233.001 56.579 233.007 56.721 232.983C56.863 232.96 56.9958 232.908 57.1194 232.828C57.2473 232.751 57.3552 232.648 57.443 232.518L60.2226 228.418ZM57.0978 230.866L56.4479 231.824C56.3558 231.756 56.2566 231.679 56.1502 231.594C56.0408 231.514 55.9715 231.407 55.9421 231.274C55.931 231.216 55.9293 231.158 55.937 231.1C55.9417 231.046 55.9581 230.985 55.9862 230.916C56.0185 230.85 56.0633 230.77 56.1204 230.676C56.1747 230.587 56.2457 230.477 56.3335 230.348L57.0978 230.866Z" fill="#222222"/>
<path d="M60.2226 228.418L60.2537 228.372L60.3004 228.403L60.2688 228.45L60.2226 228.418ZM59.2143 227.744L59.1681 227.713L59.1992 227.667L59.2454 227.698L59.2143 227.744ZM57.7345 229.927L57.7807 229.958L57.7494 230.004L57.7032 229.973L57.7345 229.927ZM56.9702 229.409L56.9389 229.455L56.8927 229.423L56.924 229.377L56.9702 229.409ZM58.4501 227.226L58.4814 227.18L58.5276 227.211L58.4963 227.257L58.4501 227.226ZM57.4461 226.545L57.3999 226.514L57.4313 226.468L57.4775 226.499L57.4461 226.545ZM54.7175 230.793L54.7723 230.803L54.7175 230.793ZM54.717 231.407L54.6622 231.418L54.717 231.407ZM54.9448 231.978L54.898 232.008L54.8977 232.008L54.9448 231.978ZM55.3839 232.446L55.3525 232.492L55.3504 232.49L55.3839 232.446ZM55.8826 232.784L55.914 232.737L55.9155 232.739L55.8826 232.784ZM56.2892 232.965L56.3001 232.91L56.3026 232.911L56.2892 232.965ZM57.1194 232.828L57.089 232.781L57.0905 232.78L57.1194 232.828ZM57.0978 230.866L57.1291 230.82L57.1753 230.851L57.144 230.897L57.0978 230.866ZM56.4479 231.824L56.4941 231.856L56.4613 231.904L56.4145 231.869L56.4479 231.824ZM56.1502 231.594L56.1833 231.549L56.185 231.551L56.1502 231.594ZM55.9421 231.274L55.8876 231.286L55.8873 231.284L55.9421 231.274ZM55.937 231.1L55.9927 231.105L55.9923 231.107L55.937 231.1ZM55.9862 230.916L55.9343 230.895L55.936 230.891L55.9862 230.916ZM56.1204 230.676L56.1682 230.705L56.1681 230.705L56.1204 230.676ZM56.3335 230.348L56.2873 230.316L56.3186 230.27L56.3648 230.301L56.3335 230.348ZM60.2226 228.418L60.1916 228.465L59.1833 227.79L59.2143 227.744L59.2454 227.698L60.2537 228.372L60.2226 228.418ZM59.2143 227.744L59.2605 227.775L57.7807 229.958L57.7345 229.927L57.6883 229.895L59.1681 227.713L59.2143 227.744ZM57.7345 229.927L57.7032 229.973L56.9389 229.455L56.9702 229.409L57.0016 229.362L57.7658 229.881L57.7345 229.927ZM56.9702 229.409L56.924 229.377L58.4038 227.195L58.4501 227.226L58.4963 227.257L57.0165 229.44L56.9702 229.409ZM58.4501 227.226L58.4187 227.272L57.4148 226.591L57.4461 226.545L57.4775 226.499L58.4814 227.18L58.4501 227.226ZM57.4461 226.545L57.4924 226.577L55.007 230.242L54.9607 230.211L54.9145 230.18L57.3999 226.514L57.4461 226.545ZM54.9607 230.211L55.007 230.242C54.8881 230.418 54.8101 230.605 54.7723 230.803L54.7175 230.793L54.6626 230.783C54.7033 230.568 54.7875 230.367 54.9145 230.18L54.9607 230.211ZM54.7175 230.793L54.7723 230.803C54.7344 231.003 54.7343 231.201 54.7719 231.397L54.717 231.407L54.6622 231.418C54.6219 231.208 54.6221 230.996 54.6626 230.783L54.7175 230.793ZM54.717 231.407L54.7719 231.397C54.8094 231.593 54.8827 231.776 54.9919 231.948L54.9448 231.978L54.8977 232.008C54.7811 231.824 54.7025 231.628 54.6622 231.418L54.717 231.407ZM54.9448 231.978L54.9916 231.947C55.1052 232.122 55.2471 232.273 55.4174 232.401L55.3839 232.446L55.3504 232.49C55.1698 232.355 55.0189 232.194 54.898 232.008L54.9448 231.978ZM55.3839 232.446L55.4152 232.399L55.914 232.737L55.8826 232.784L55.8513 232.83L55.3526 232.492L55.3839 232.446ZM55.8826 232.784L55.9155 232.739C56.036 232.826 56.1641 232.883 56.3001 232.91L56.2892 232.965L56.2784 233.02C56.1255 232.989 55.9825 232.925 55.8498 232.829L55.8826 232.784ZM56.2892 232.965L56.3026 232.911C56.4414 232.945 56.5777 232.95 56.7119 232.928L56.721 232.983L56.7301 233.038C56.5803 233.063 56.4288 233.057 56.2759 233.019L56.2892 232.965ZM56.721 232.983L56.7119 232.928C56.8461 232.906 56.9717 232.857 57.089 232.781L57.1194 232.828L57.1497 232.875C57.0198 232.959 56.8798 233.014 56.7301 233.038L56.721 232.983ZM57.1194 232.828L57.0905 232.78C57.2112 232.707 57.3133 232.61 57.3968 232.487L57.443 232.518L57.4892 232.549C57.3971 232.685 57.2834 232.794 57.1482 232.876L57.1194 232.828ZM57.443 232.518L57.3968 232.487L60.1764 228.387L60.2226 228.418L60.2688 228.45L57.4892 232.549L57.443 232.518ZM57.0978 230.866L57.144 230.897L56.4941 231.856L56.4479 231.824L56.4017 231.793L57.0515 230.835L57.0978 230.866ZM56.4479 231.824L56.4145 231.869C56.3219 231.8 56.2222 231.723 56.1154 231.638L56.1502 231.594L56.185 231.551C56.291 231.635 56.3898 231.711 56.4813 231.78L56.4479 231.824ZM56.1502 231.594L56.1171 231.639C55.9968 231.551 55.9198 231.432 55.8876 231.286L55.9421 231.274L55.9967 231.262C56.0231 231.382 56.0849 231.477 56.1833 231.549L56.1502 231.594ZM55.9421 231.274L55.8873 231.284C55.8751 231.22 55.8731 231.156 55.8816 231.093L55.937 231.1L55.9923 231.107C55.9855 231.159 55.987 231.211 55.997 231.263L55.9421 231.274ZM55.937 231.1L55.8814 231.095C55.8868 231.034 55.905 230.967 55.9344 230.895L55.9862 230.916L56.0379 230.937C56.0112 231.003 55.9967 231.059 55.9926 231.105L55.937 231.1ZM55.9862 230.916L55.936 230.891C55.9694 230.823 56.0151 230.741 56.0728 230.647L56.1204 230.676L56.1681 230.705C56.1115 230.798 56.0677 230.876 56.0364 230.94L55.9862 230.916ZM56.1204 230.676L56.0727 230.647C56.1276 230.557 56.1992 230.446 56.2873 230.316L56.3335 230.348L56.3797 230.379C56.2922 230.508 56.2217 230.617 56.1682 230.705L56.1204 230.676ZM56.3335 230.348L56.3648 230.301L57.1291 230.82L57.0978 230.866L57.0664 230.912L56.3022 230.394L56.3335 230.348Z" fill="#222222" mask="url(#path-39-outside-4_1_3242)"/>
<path d="M49.7742 266.251C51.878 277.163 59.9306 304.186 89.8524 327.674C91.1615 328.7 91.1088 330.698 89.7601 331.671L45.0554 363.822C44.0431 364.551 42.6482 364.425 41.7876 363.525C34.3978 355.789 3.13055 318.448 5.46521 242.473C5.52127 240.626 7.49979 239.482 9.13207 240.339L44.175 258.736C47.0834 260.263 49.1542 263.023 49.7775 266.251H49.7742Z" fill="white" stroke="#222222" stroke-width="0.659507" stroke-miterlimit="10"/>
<path d="M38.8921 296.024C38.1798 291.652 35.466 288.555 32.4949 288.278C31.8815 288.222 30.6549 288.229 29.1281 289.119C28.1586 290.204 27.6805 291.25 27.4431 292.15C26.1405 297.136 30.7736 303.661 38.8921 308.482C41.2498 310.111 43.6076 311.737 45.9653 313.366L48.6594 306.461C49.0287 305.643 51.3601 300.258 48.6594 295.012C47.5086 292.776 45.8697 291.391 44.7848 290.633C44.4616 290.481 42.8524 289.762 41.2498 290.465C39.4329 291.263 38.3513 293.574 38.8921 296.021V296.024Z" fill="#ED1C24"/>
<path d="M16.3403 261.921C16.7591 259.755 16.182 257.925 15.051 257.394C14.8168 257.285 14.3288 257.124 13.5803 257.341C13.023 257.724 12.6635 258.156 12.4261 258.551C11.1104 260.738 11.8952 264.451 14.3387 267.824C15.0114 268.912 15.6841 270 16.3568 271.085L18.5332 268.177C18.8102 267.841 20.5974 265.605 20.3732 262.756C20.2776 261.542 19.8489 260.665 19.5422 260.164C19.44 260.048 18.9157 259.491 18.1671 259.61C17.3197 259.742 16.5184 260.691 16.3403 261.925V261.921Z" fill="#ED1C24"/>
<path d="M72.8377 323.95C73.8929 325.889 75.5021 326.934 76.7156 326.621C76.9662 326.555 77.4443 326.37 77.8829 325.727C78.0708 325.078 78.0708 324.517 78.0049 324.062C77.629 321.536 74.6612 319.175 70.6283 318.126C69.4181 317.714 68.2079 317.305 66.9944 316.893L67.1659 320.52C67.1659 320.956 67.2121 323.821 69.1972 325.872C70.0446 326.746 70.9317 327.152 71.489 327.343C71.6407 327.366 72.3991 327.462 72.9003 326.898C73.4708 326.255 73.484 325.015 72.8344 323.95H72.8377Z" fill="#ED1C24"/>
<path d="M14.5263 255.492L15.6947 255.817L16.4188 253.281L17.3067 253.535L16.5826 256.071L17.7488 256.404L18.965 252.145C19.0252 251.934 19.0416 251.725 19.0144 251.516C18.9871 251.308 18.9233 251.113 18.823 250.933C18.7226 250.752 18.5911 250.595 18.4285 250.462C18.2608 250.327 18.073 250.225 17.8652 250.155L17.2858 249.989C17.1368 249.941 16.9892 249.926 16.843 249.944C16.6932 249.955 16.5546 249.995 16.427 250.061C16.2995 250.128 16.1895 250.219 16.0971 250.333C15.9996 250.446 15.9294 250.578 15.8865 250.729L14.5263 255.492ZM16.7304 252.19L17.0484 251.077C17.1573 251.113 17.2756 251.155 17.4031 251.203C17.5321 251.245 17.6314 251.325 17.7009 251.442C17.7296 251.494 17.7493 251.548 17.76 251.606C17.7722 251.658 17.7758 251.721 17.7708 251.796C17.7608 251.869 17.7432 251.959 17.7182 252.066C17.6945 252.167 17.6612 252.294 17.6183 252.444L16.7304 252.19Z" fill="#ED1C24"/>
<path d="M76.2731 330.072L77.155 329.24L78.9778 331.145L79.6451 330.507L77.8222 328.601L78.6987 327.763L81.7602 330.963C81.9117 331.122 82.0239 331.299 82.0971 331.497C82.1702 331.694 82.2044 331.896 82.1998 332.102C82.1953 332.309 82.1521 332.509 82.0703 332.703C81.9847 332.9 81.8664 333.078 81.7153 333.237L81.2799 333.654C81.1704 333.766 81.0468 333.848 80.9091 333.9C80.7713 333.96 80.6304 333.99 80.4865 333.99C80.3426 333.991 80.203 333.962 80.0678 333.903C79.9288 333.849 79.8052 333.765 79.6971 333.652L76.2731 330.072ZM79.7622 331.965L80.5627 332.802C80.642 332.719 80.7271 332.627 80.8179 332.525C80.9123 332.428 80.9629 332.311 80.9696 332.175C80.9709 332.116 80.9629 332.058 80.9457 332.002C80.9321 331.95 80.9057 331.893 80.8665 331.829C80.8236 331.769 80.7662 331.698 80.6942 331.615C80.6258 331.536 80.5376 331.44 80.4294 331.327L79.7622 331.965Z" fill="#ED1C24"/>
<path d="M23.5817 74.5721L-0.127525 117.747C-0.787032 118.947 -0.249534 120.457 1.02002 120.968L33.2204 133.967C34.3911 134.439 35.7233 133.875 36.1981 132.704L57.3551 80.5274C57.9157 79.1424 57.022 77.5992 55.5415 77.4013L25.8933 73.4014C24.9568 73.2761 24.0368 73.7378 23.5817 74.5688V74.5721Z" fill="white" stroke="#222222" stroke-width="0.659507" stroke-miterlimit="10"/>
<path d="M27.2898 79.2846L28.085 79.5062L28.5779 77.7804L29.1821 77.9529L28.6893 79.6787L29.4831 79.9054L30.3108 77.0069C30.3518 76.8635 30.363 76.7208 30.3444 76.5789C30.3259 76.437 30.2825 76.3046 30.2142 76.1817C30.1459 76.0588 30.0564 75.952 29.9456 75.8613C29.8315 75.7696 29.7037 75.6999 29.5623 75.6521L29.1679 75.5395C29.0665 75.5068 28.966 75.4966 28.8665 75.5088C28.7646 75.5166 28.6702 75.5432 28.5834 75.5886C28.4966 75.6339 28.4218 75.6957 28.3589 75.7737C28.2925 75.8508 28.2448 75.9405 28.2155 76.0429L27.2898 79.2846ZM28.7899 77.0378L29.0064 76.2799C29.0805 76.3047 29.161 76.3332 29.2478 76.3654C29.3356 76.3942 29.4031 76.4486 29.4505 76.5285C29.47 76.5636 29.4834 76.6007 29.4907 76.6397C29.499 76.6753 29.5014 76.7185 29.498 76.7692C29.4912 76.819 29.4793 76.8802 29.4622 76.9528C29.4461 77.0221 29.4235 77.1079 29.3942 77.2104L28.7899 77.0378Z" fill="#ED1C24"/>
<path d="M30.1149 124.385L29.3197 124.164L28.8268 125.889L28.2225 125.717L28.7154 123.991L27.9216 123.764L27.0938 126.663C27.0529 126.806 27.0417 126.949 27.0602 127.091C27.0788 127.233 27.1222 127.365 27.1905 127.488C27.2588 127.611 27.3483 127.718 27.459 127.809C27.5732 127.9 27.701 127.97 27.8424 128.018L28.2367 128.13C28.3382 128.163 28.4386 128.173 28.5381 128.161C28.6401 128.153 28.7344 128.127 28.8212 128.081C28.908 128.036 28.9829 127.974 29.0458 127.896C29.1121 127.819 29.1599 127.729 29.1892 127.627L30.1149 124.385ZM28.6148 126.632L28.3983 127.39C28.3242 127.365 28.2437 127.337 28.1569 127.304C28.0691 127.276 28.0015 127.221 27.9542 127.141C27.9347 127.106 27.9213 127.069 27.914 127.03C27.9057 126.994 27.9032 126.951 27.9066 126.901C27.9135 126.851 27.9254 126.79 27.9425 126.717C27.9585 126.648 27.9812 126.562 28.0105 126.459L28.6148 126.632Z" fill="#ED1C24"/>
<path d="M22.0142 95.9656L32.5761 91.3106L35.8666 101.286L24.0993 108.189L22.0142 95.9656Z" fill="#ED1C24"/>
<path d="M24.0739 82.315L27.8214 80.8686L29.1133 84.2505L24.9569 86.438L24.0739 82.315Z" fill="#ED1C24"/>
<path d="M28.4121 117.036L33.1246 115.092L34.6733 119.441L29.4351 122.352L28.4121 117.036Z" fill="#ED1C24"/>
</svg>
